<?xml version="1.0" encoding="utf-8"?>
<!-- Generator: Adobe Illustrator 16.0.0, SVG Export Plug-In . SVG Version: 6.00 Build 0)  -->
<!DOCTYPE svg PUBLIC "-//W3C//DTD SVG 1.1//EN" "http://www.w3.org/Graphics/SVG/1.1/DTD/svg11.dtd">
<svg version="1.1" id="Layer_1" xmlns="http://www.w3.org/2000/svg" xmlns:xlink="http://www.w3.org/1999/xlink" x="0px" y="0px"
	 width="274px" height="66px" viewBox="0 0 274 66" enable-background="new 0 0 274 66" xml:space="preserve">
<title>Slice 1</title>
<desc>Created with Sketch.</desc>
<g>
	<g>
		<polygon fill="#FFFFFF" points="90.941,30.395 96.188,30.395 96.188,36.01 90.941,36.01 		"/>
	</g>
	<g>
		<path fill="#FFFFFF" d="M27.534,37.99h-0.012l0,0h-0.007l0,0c-6.813,0-12.338,5.533-12.354,12.366l0,0
			c-0.002,6.85,5.516,12.406,12.339,12.412l0,0c6.828,0.01,12.348-5.531,12.371-12.374l0,0
			C39.871,43.549,34.345,37.995,27.534,37.99L27.534,37.99z"/>
	</g>
	<g>
		<path fill="#FFFFFF" d="M9.461,42.969c18.054-22.408,36.116-0.017,36.116-0.017l0,0L28.107,4.073L9.461,42.969L9.461,42.969z"/>
	</g>
	<path fill="#FFFFFF" d="M78.475,21.716c0,2.49-0.463,4.636-1.387,6.443c-0.923,1.805-2.141,3.291-3.652,4.455
		c-1.512,1.165-3.221,2.024-5.118,2.569c-1.902,0.549-3.829,0.826-5.784,0.826H51.936V7.585h10.277c2.008,0,3.989,0.234,5.943,0.703
		c1.952,0.468,3.694,1.244,5.219,2.326c1.526,1.084,2.754,2.536,3.692,4.356S78.475,19.042,78.475,21.716z M71.326,21.716
		c0-1.608-0.259-2.937-0.782-3.996c-0.524-1.056-1.218-1.899-2.086-2.53c-0.871-0.628-1.86-1.075-2.972-1.342
		c-1.111-0.27-2.255-0.402-3.433-0.402h-3.412v16.622h3.252c1.231,0,2.413-0.142,3.552-0.423c1.137-0.279,2.141-0.743,3.012-1.385
		c0.868-0.644,1.563-1.499,2.086-2.57C71.068,24.62,71.326,23.294,71.326,21.716z"/>
	<path fill="#FFFFFF" d="M92.405,21.434c-0.294-0.081-0.582-0.13-0.864-0.161c-0.28-0.025-0.556-0.038-0.823-0.038
		c-0.883,0-1.626,0.161-2.227,0.479c-0.602,0.321-1.083,0.708-1.446,1.162c-0.364,0.452-0.622,0.949-0.784,1.482
		c-0.158,0.533-0.239,1-0.239,1.401V36.01h-6.584V16.038h6.345v2.892h0.076c0.508-1.026,1.233-1.861,2.172-2.507
		c0.934-0.647,2.021-0.972,3.25-0.972c0.268,0,0.527,0.015,0.785,0.041c0.252,0.026,0.459,0.068,0.621,0.121L92.405,21.434z"/>
	<path fill="#FFFFFF" d="M122.729,36.01l-2.207-5.583h-11l-2.09,5.583h-7.465L111.89,7.584h6.666l11.803,28.425H122.729z
		 M115.103,15.169l-3.613,9.758h7.147L115.103,15.169z"/>
	<path fill="#FFFFFF" d="M150.352,34.122c0,1.952-0.281,3.654-0.844,5.099c-0.559,1.445-1.353,2.642-2.367,3.594
		c-1.019,0.95-2.255,1.657-3.713,2.128c-1.461,0.468-3.072,0.703-4.839,0.703c-1.768,0-3.579-0.269-5.439-0.802
		c-1.861-0.538-3.475-1.314-4.838-2.331l3.291-4.697c0.965,0.856,2.029,1.491,3.193,1.907c1.162,0.415,2.309,0.622,3.433,0.622
		c1.927,0,3.354-0.509,4.277-1.526c0.923-1.018,1.382-2.368,1.382-4.055V33.56h-0.12c-0.614,0.804-1.444,1.445-2.487,1.929
		c-1.044,0.479-2.235,0.722-3.574,0.722c-1.524,0-2.877-0.273-4.055-0.825c-1.179-0.546-2.174-1.291-2.989-2.226
		c-0.82-0.937-1.44-2.027-1.868-3.273c-0.428-1.245-0.644-2.565-0.644-3.955s0.215-2.717,0.644-3.975
		c0.428-1.257,1.048-2.37,1.868-3.331c0.815-0.964,1.81-1.732,2.989-2.311c1.178-0.575,2.516-0.863,4.015-0.863
		c1.26,0,2.462,0.256,3.614,0.765c1.149,0.508,2.073,1.3,2.769,2.369h0.083v-2.571h6.221V34.122L150.352,34.122z M144.09,25.89
		c0-0.667-0.114-1.309-0.343-1.927c-0.228-0.616-0.555-1.156-0.982-1.626c-0.428-0.468-0.938-0.836-1.524-1.103
		c-0.591-0.269-1.259-0.403-2.009-0.403s-1.41,0.134-1.986,0.403c-0.579,0.267-1.064,0.627-1.464,1.083
		c-0.407,0.455-0.714,0.991-0.927,1.606c-0.213,0.617-0.322,1.271-0.322,1.967c0,0.671,0.109,1.311,0.322,1.927
		c0.213,0.616,0.521,1.157,0.927,1.628c0.399,0.466,0.885,0.841,1.464,1.125c0.576,0.28,1.236,0.421,1.986,0.421
		s1.426-0.141,2.028-0.421c0.602-0.284,1.11-0.651,1.524-1.106c0.415-0.454,0.735-0.99,0.963-1.603
		C143.976,27.242,144.09,26.587,144.09,25.89z"/>
	<path fill="#FFFFFF" d="M152.275,18.743c1.179-1.123,2.551-1.966,4.117-2.527c1.565-0.562,3.162-0.843,4.796-0.843
		c1.687,0,3.111,0.206,4.276,0.622c1.164,0.415,2.109,1.059,2.831,1.926c0.723,0.871,1.25,1.969,1.586,3.293
		c0.335,1.322,0.504,2.897,0.504,4.717V36.01h-6.026v-2.128h-0.117c-0.51,0.828-1.278,1.471-2.311,1.927
		c-1.03,0.452-2.146,0.681-3.352,0.681c-0.803,0-1.635-0.107-2.488-0.32c-0.858-0.214-1.641-0.562-2.35-1.044
		c-0.709-0.479-1.29-1.123-1.749-1.927c-0.452-0.804-0.68-1.793-0.68-2.974c0-1.441,0.392-2.608,1.185-3.49
		c0.789-0.885,1.809-1.566,3.051-2.049c1.247-0.479,2.631-0.801,4.155-0.963c1.526-0.158,3.011-0.241,4.458-0.241v-0.32
		c0-0.99-0.349-1.72-1.045-2.188c-0.698-0.469-1.554-0.702-2.569-0.702c-0.938,0-1.842,0.199-2.712,0.602
		c-0.869,0.399-1.613,0.882-2.227,1.444L152.275,18.743z M164.359,27.294h-0.841c-0.723,0-1.452,0.034-2.188,0.103
		c-0.736,0.067-1.392,0.193-1.968,0.38c-0.575,0.189-1.05,0.462-1.426,0.823c-0.373,0.362-0.563,0.838-0.563,1.427
		c0,0.374,0.089,0.698,0.263,0.964s0.393,0.481,0.666,0.641c0.265,0.16,0.571,0.275,0.919,0.341
		c0.348,0.067,0.684,0.102,1.004,0.102c1.338,0,2.361-0.37,3.07-1.106c0.708-0.733,1.063-1.732,1.063-2.991V27.294L164.359,27.294z"
		/>
	<path fill="#FFFFFF" d="M184.314,21.434c-0.296-0.081-0.583-0.13-0.861-0.161c-0.286-0.025-0.559-0.038-0.826-0.038
		c-0.882,0-1.625,0.161-2.228,0.479c-0.602,0.321-1.085,0.708-1.444,1.162c-0.362,0.452-0.625,0.949-0.784,1.482
		c-0.161,0.533-0.239,1-0.239,1.401V36.01h-6.585V16.038h6.343v2.892h0.081c0.507-1.026,1.231-1.861,2.168-2.507
		c0.937-0.647,2.021-0.972,3.251-0.972c0.269,0,0.528,0.015,0.785,0.041c0.254,0.026,0.46,0.068,0.621,0.121L184.314,21.434z"/>
	<path fill="#FFFFFF" d="M213.581,36.01h-6.623l-3.935-12.446h-0.082l-3.854,12.446h-6.622l-6.905-19.996h7.104l3.457,12.648h0.118
		l3.571-12.648h6.626l3.69,12.648h0.084l3.49-12.648h6.825L213.581,36.01z"/>
	<path fill="#FFFFFF" d="M220.406,18.743c1.178-1.123,2.548-1.966,4.113-2.527c1.566-0.562,3.165-0.843,4.796-0.843
		c1.689,0,3.115,0.206,4.279,0.622c1.163,0.415,2.106,1.059,2.827,1.926c0.726,0.871,1.254,1.969,1.587,3.293
		c0.336,1.322,0.505,2.897,0.505,4.717V36.01h-6.024v-2.128h-0.122c-0.508,0.828-1.278,1.471-2.306,1.927
		c-1.031,0.452-2.147,0.681-3.354,0.681c-0.803,0-1.633-0.107-2.489-0.32c-0.856-0.214-1.64-0.562-2.35-1.044
		c-0.709-0.479-1.289-1.123-1.745-1.927c-0.455-0.804-0.682-1.793-0.682-2.974c0-1.441,0.396-2.608,1.185-3.49
		c0.788-0.885,1.806-1.566,3.05-2.049c1.245-0.479,2.632-0.801,4.156-0.963c1.526-0.158,3.011-0.241,4.457-0.241v-0.32
		c0-0.99-0.35-1.72-1.044-2.188c-0.696-0.469-1.552-0.702-2.568-0.702c-0.941,0-1.842,0.199-2.711,0.602
		c-0.873,0.399-1.612,0.882-2.229,1.444L220.406,18.743z M232.489,27.294h-0.843c-0.723,0-1.451,0.034-2.188,0.103
		c-0.734,0.067-1.394,0.193-1.966,0.38c-0.575,0.189-1.052,0.462-1.428,0.823c-0.374,0.362-0.56,0.838-0.56,1.427
		c0,0.374,0.084,0.698,0.26,0.964c0.174,0.266,0.394,0.481,0.664,0.641c0.266,0.16,0.573,0.275,0.921,0.341
		c0.35,0.067,0.686,0.102,1.005,0.102c1.339,0,2.364-0.37,3.072-1.106c0.707-0.733,1.063-1.732,1.063-2.991V27.294L232.489,27.294z"
		/>
	<path fill="#FFFFFF" d="M239.476,36.01V5.657h6.703V36.01H239.476z"/>
	<path fill="#FFFFFF" d="M260.928,21.915c-0.538-0.506-1.165-0.935-1.886-1.285c-0.725-0.345-1.487-0.522-2.29-0.522
		c-0.616,0-1.186,0.121-1.705,0.362c-0.524,0.242-0.785,0.657-0.785,1.246c0,0.56,0.289,0.961,0.863,1.204
		c0.575,0.24,1.507,0.509,2.791,0.801c0.751,0.162,1.507,0.39,2.27,0.685c0.763,0.294,1.451,0.68,2.066,1.164
		c0.613,0.479,1.108,1.07,1.486,1.767c0.375,0.697,0.562,1.525,0.562,2.49c0,1.258-0.254,2.32-0.762,3.192
		c-0.511,0.871-1.172,1.572-1.989,2.105c-0.817,0.537-1.733,0.923-2.75,1.163c-1.015,0.243-2.033,0.363-3.051,0.363
		c-1.633,0-3.231-0.262-4.797-0.782c-1.566-0.523-2.871-1.29-3.916-2.309l3.694-3.895c0.588,0.642,1.31,1.179,2.168,1.606
		c0.856,0.429,1.768,0.642,2.73,0.642c0.537,0,1.062-0.127,1.588-0.381c0.52-0.253,0.781-0.702,0.781-1.344
		c0-0.615-0.322-1.072-0.964-1.367c-0.642-0.292-1.646-0.602-3.012-0.923c-0.697-0.16-1.393-0.375-2.087-0.641
		c-0.697-0.268-1.317-0.63-1.868-1.083c-0.549-0.458-0.996-1.02-1.344-1.688c-0.348-0.668-0.523-1.471-0.523-2.41
		c0-1.202,0.255-2.227,0.764-3.071c0.509-0.844,1.166-1.533,1.968-2.068c0.804-0.536,1.691-0.929,2.671-1.184
		c0.975-0.253,1.945-0.381,2.91-0.381c1.497,0,2.964,0.233,4.396,0.702c1.432,0.469,2.643,1.172,3.632,2.108L260.928,21.915z"/>
	<g>
		<path fill="#FFFFFF" d="M104.153,50.105h7.804v2.398h-5.273v2.198h4.981v2.398h-4.981v2.397h5.565v2.398h-8.096V50.105
			L104.153,50.105z"/>
		<path fill="#FFFFFF" d="M121.318,56.867l-4.316-6.762h3.148l2.433,4.413l2.581-4.413h3l-4.314,6.762v5.03h-2.531V56.867
			L121.318,56.867z"/>
		<path fill="#FFFFFF" d="M133.323,50.105h7.803v2.398h-5.273v2.198h4.981v2.398h-4.981v2.397h5.565v2.398h-8.095V50.105
			L133.323,50.105z"/>
		<path fill="#FFFFFF" d="M156.683,50.105h2.531v4.396h4.916v-4.396h2.529v11.792h-2.529v-5.097h-4.916v5.097h-2.531V50.105z"/>
		<path fill="#FFFFFF" d="M172.597,56.001c0-0.942,0.154-1.799,0.464-2.564c0.308-0.766,0.737-1.418,1.289-1.957
			c0.552-0.538,1.206-0.952,1.963-1.24c0.757-0.289,1.584-0.433,2.481-0.433c0.898,0,1.726,0.145,2.482,0.433
			c0.758,0.288,1.411,0.702,1.964,1.24c0.551,0.539,0.981,1.191,1.289,1.957c0.309,0.766,0.463,1.622,0.463,2.564
			c0,0.944-0.153,1.799-0.463,2.564c-0.308,0.767-0.738,1.419-1.289,1.957c-0.553,0.539-1.206,0.952-1.964,1.241
			c-0.757,0.288-1.584,0.433-2.482,0.433c-0.897,0-1.725-0.145-2.481-0.433c-0.757-0.289-1.411-0.702-1.963-1.241
			c-0.552-0.538-0.981-1.19-1.289-1.957C172.751,57.8,172.597,56.945,172.597,56.001z M175.226,56.001
			c0,0.556,0.084,1.063,0.252,1.524c0.167,0.46,0.407,0.86,0.722,1.198c0.313,0.34,0.689,0.603,1.127,0.792
			c0.438,0.188,0.928,0.283,1.468,0.283c0.542,0,1.031-0.096,1.469-0.283c0.438-0.189,0.814-0.452,1.127-0.792
			c0.313-0.338,0.556-0.738,0.722-1.198c0.168-0.461,0.253-0.969,0.253-1.524c0-0.544-0.085-1.049-0.253-1.516
			c-0.167-0.466-0.408-0.868-0.722-1.207c-0.313-0.339-0.689-0.603-1.127-0.791s-0.927-0.283-1.469-0.283
			c-0.54,0-1.03,0.095-1.468,0.283s-0.814,0.452-1.127,0.791c-0.314,0.339-0.555,0.741-0.722,1.207
			C175.31,54.952,175.226,55.458,175.226,56.001z"/>
		<path fill="#FFFFFF" d="M196.607,52.986c-0.206-0.266-0.483-0.463-0.836-0.591c-0.352-0.128-0.684-0.192-0.997-0.192
			c-0.184,0-0.374,0.022-0.567,0.067c-0.195,0.044-0.379,0.114-0.552,0.208c-0.174,0.095-0.313,0.219-0.422,0.375
			s-0.163,0.344-0.163,0.565c0,0.355,0.13,0.629,0.39,0.816c0.26,0.189,0.587,0.351,0.981,0.483s0.82,0.267,1.273,0.399
			c0.454,0.134,0.878,0.322,1.274,0.565c0.395,0.246,0.722,0.573,0.981,0.983c0.259,0.411,0.389,0.961,0.389,1.649
			c0,0.654-0.119,1.228-0.355,1.715c-0.239,0.489-0.561,0.895-0.967,1.217c-0.405,0.322-0.876,0.561-1.411,0.716
			s-1.1,0.232-1.694,0.232c-0.747,0-1.438-0.116-2.077-0.349c-0.638-0.234-1.232-0.611-1.785-1.135l1.801-2.031
			c0.26,0.356,0.587,0.631,0.982,0.825c0.394,0.194,0.803,0.292,1.225,0.292c0.205,0,0.414-0.025,0.624-0.076
			c0.211-0.05,0.401-0.124,0.568-0.225c0.168-0.099,0.302-0.228,0.405-0.383c0.103-0.155,0.154-0.339,0.154-0.55
			c0-0.354-0.132-0.635-0.397-0.841c-0.265-0.205-0.598-0.38-0.998-0.524s-0.833-0.288-1.298-0.433
			c-0.466-0.145-0.898-0.339-1.298-0.583c-0.4-0.245-0.732-0.565-0.998-0.966c-0.265-0.4-0.396-0.928-0.396-1.583
			c0-0.633,0.121-1.187,0.364-1.665c0.244-0.478,0.567-0.877,0.975-1.199c0.405-0.322,0.873-0.563,1.402-0.725
			c0.529-0.16,1.075-0.24,1.639-0.24c0.649,0,1.275,0.094,1.882,0.282c0.604,0.189,1.152,0.505,1.638,0.949L196.607,52.986z"/>
		<path fill="#FFFFFF" d="M204.459,50.105h4.267c0.595,0,1.158,0.056,1.688,0.167c0.528,0.111,0.992,0.302,1.386,0.575
			c0.396,0.272,0.708,0.638,0.941,1.098c0.232,0.462,0.349,1.042,0.349,1.741c0,0.688-0.108,1.266-0.323,1.732
			c-0.218,0.466-0.515,0.838-0.894,1.115c-0.379,0.278-0.826,0.475-1.347,0.591c-0.519,0.116-1.08,0.176-1.687,0.176h-1.849v4.597
			h-2.531L204.459,50.105L204.459,50.105z M206.99,55.102h1.687c0.228,0,0.447-0.022,0.656-0.065
			c0.212-0.045,0.401-0.12,0.568-0.226c0.168-0.104,0.303-0.249,0.406-0.433c0.103-0.183,0.155-0.414,0.155-0.691
			c0-0.301-0.069-0.54-0.204-0.725c-0.135-0.184-0.309-0.325-0.519-0.425c-0.212-0.1-0.447-0.164-0.707-0.191
			s-0.508-0.04-0.745-0.04h-1.298V55.102L206.99,55.102z"/>
		<path fill="#FFFFFF" d="M218.865,50.105h2.531v11.792h-2.531V50.105z"/>
		<path fill="#FFFFFF" d="M230.14,52.403h-3.277v-2.298h9.087v2.298h-3.278v9.494h-2.53L230.14,52.403L230.14,52.403z"/>
		<path fill="#FFFFFF" d="M243.735,50.105h2.092l4.998,11.792h-2.856l-0.99-2.498h-4.461l-0.956,2.498h-2.791L243.735,50.105z
			 M244.708,53.537l-1.395,3.663h2.806L244.708,53.537z"/>
		<path fill="#FFFFFF" d="M256.291,50.105h2.531v9.394h4.688v2.398h-7.22V50.105L256.291,50.105z"/>
	</g>
</g>
</svg>
